<svg xmlns="http://www.w3.org/2000/svg" viewBox="0 0 1200 880" role="img" aria-labelledby="title desc">
  <title id="title">Private lesson placeholder</title>
  <desc id="desc">Abstract placeholder for the private tango lesson experience.</desc>
  <defs>
    <linearGradient id="bg" x1="0%" x2="100%" y1="0%" y2="100%">
      <stop offset="0%" stop-color="#faf2e8" />
      <stop offset="100%" stop-color="#e5d2bd" />
    </linearGradient>
  </defs>
  <rect width="1200" height="880" fill="url(#bg)" />
  <rect x="78" y="88" width="1044" height="704" rx="42" fill="#fff8ef" stroke="#d8b79a" stroke-width="2" />
  <circle cx="942" cy="188" r="116" fill="#f1e1d1" />
  <path d="M194 678c56-176 165-289 299-289 90 0 169 56 226 160 60-136 162-221 280-221 97 0 168 51 219 156v194H194Z" fill="#efdfcc" />
  <path d="M555 678c-24-151-101-252-218-252-100 0-171 74-203 252h421Z" fill="#8f4935" />
  <path d="M706 678c32-185 118-299 225-299 118 0 188 95 224 299H706Z" fill="#c16e52" />
  <path d="M391 296c58 0 105 47 105 105" fill="none" stroke="#c77a5b" stroke-linecap="round" stroke-width="18" />
  <path d="M802 272c68 0 123 56 123 124" fill="none" stroke="#8d432f" stroke-linecap="round" stroke-width="22" />
  <text x="136" y="160" fill="#6a3224" font-family="Manrope, Arial, sans-serif" font-size="25" font-weight="700" letter-spacing="7">PRIVATE TANGO LESSON</text>
  <text x="136" y="214" fill="#6a3224" font-family="Cormorant Garamond, Georgia, serif" font-size="68">Placeholder image</text>
  <text x="136" y="262" fill="#85695a" font-family="Manrope, Arial, sans-serif" font-size="28">Use a studio portrait, an embrace detail, or a quiet rehearsal space.</text>
</svg>
